<svg xmlns="http://www.w3.org/2000/svg" viewBox="0 0 10 10"><defs><style>.cls-1{fill:#312c30;}.cls-2{fill:#fff;fill-rule:evenodd;}</style></defs><g id="Capa_2" data-name="Capa 2"><g id="Layer_1" data-name="Layer 1"><path class="cls-1" d="M5,10a5,5,0,1,1,5-5A5,5,0,0,1,5,10Z"/><path class="cls-2" d="M5.24,1.75a3,3,0,0,0-3,3A3,3,0,0,0,2.7,6.4l-.46,1a.26.26,0,0,0,0,.28.25.25,0,0,0,.2.09h.07l1.26-.34a3.08,3.08,0,0,0,1.43.35,3,3,0,0,0,0-6Zm0,5.51A2.53,2.53,0,0,1,4,6.92a.22.22,0,0,0-.13,0H3.78L3,7.12l.29-.64a.25.25,0,0,0,0-.26,2.54,2.54,0,0,1-.47-1.46,2.5,2.5,0,1,1,2.5,2.5Z"/><path class="cls-2" d="M6.4,5.22A.51.51,0,0,0,6,5.12c-.12,0-.19.22-.26.31a.11.11,0,0,1-.15,0,2,2,0,0,1-1-.85.12.12,0,0,1,0-.16.64.64,0,0,0,.19-.3.69.69,0,0,0-.09-.34c-.06-.13-.12-.32-.25-.39A.34.34,0,0,0,4,3.48a.76.76,0,0,0-.27.61,1.11,1.11,0,0,0,0,.19A1.52,1.52,0,0,0,4,4.71a2.2,2.2,0,0,0,.19.3A3.2,3.2,0,0,0,5,5.8a2.57,2.57,0,0,0,.53.25,1.16,1.16,0,0,0,.61.09.76.76,0,0,0,.56-.41.38.38,0,0,0,0-.21C6.71,5.37,6.51,5.29,6.4,5.22Z"/></g></g></svg>