<svg xmlns="http://www.w3.org/2000/svg" viewBox="0 0 16.39 16.39"><defs><style>.cls-1{fill:#312c30;}.cls-2{fill:#fff;fill-rule:evenodd;}</style></defs><g id="Capa_2" data-name="Capa 2"><g id="Layer_1" data-name="Layer 1"><path class="cls-1" d="M8.19,16.39a8.2,8.2,0,1,1,8.2-8.2A8.21,8.21,0,0,1,8.19,16.39Z"/><path class="cls-2" d="M6.91,8.23V13a.12.12,0,0,0,.12.13H8.8A.12.12,0,0,0,8.92,13V8.16H10.2A.12.12,0,0,0,10.32,8l.13-1.45a.14.14,0,0,0-.13-.14H8.92v-1A.44.44,0,0,1,9.36,5h1a.12.12,0,0,0,.13-.12V3.41a.13.13,0,0,0-.13-.13H8.68A1.77,1.77,0,0,0,6.91,5.05v1.4H6a.13.13,0,0,0-.13.13V8A.13.13,0,0,0,6,8.16h.88Z"/></g></g></svg>