<svg xmlns="http://www.w3.org/2000/svg" viewBox="0 0 16.28 16.28"><defs><style>.cls-1{fill:#fff;}.cls-2{fill:#312c30;}</style></defs><g id="Capa_2" data-name="Capa 2"><g id="Layer_1" data-name="Layer 1"><circle class="cls-1" cx="8.13" cy="8.07" r="7.13"/><path class="cls-2" d="M8.14,16.28a8.14,8.14,0,1,1,8.14-8.14A8.15,8.15,0,0,1,8.14,16.28ZM10.89,4.84a.6.6,0,1,0,.6.6A.6.6,0,0,0,10.89,4.84Zm-2.68.77a2.53,2.53,0,1,0,2.53,2.53A2.53,2.53,0,0,0,8.21,5.61Zm0,4.15A1.62,1.62,0,1,1,9.83,8.14,1.62,1.62,0,0,1,8.21,9.76ZM13.31,6A3.08,3.08,0,0,0,10.23,3H6.15A3.08,3.08,0,0,0,3.07,6v4.07A3.08,3.08,0,0,0,6.15,13.2h4.08a3.08,3.08,0,0,0,3.08-3.09Zm-1,4.07a2.12,2.12,0,0,1-2.12,2.12H6.15A2.12,2.12,0,0,1,4,10.11V6A2.12,2.12,0,0,1,6.15,3.92h4.08A2.12,2.12,0,0,1,12.35,6Z"/></g></g></svg>