<svg xmlns="http://www.w3.org/2000/svg" viewBox="0 0 9.16 9.16"><defs><style>.cls-1{fill:#bababa;}</style></defs><g id="Capa_2" data-name="Capa 2"><g id="Layer_1" data-name="Layer 1"><path class="cls-1" d="M4.58,0A4.58,4.58,0,1,0,9.16,4.58,4.58,4.58,0,0,0,4.58,0Zm1,7.1L5,7.31a1.44,1.44,0,0,1-.49.08,1,1,0,0,1-.67-.21.7.7,0,0,1-.23-.53,1.14,1.14,0,0,1,0-.26c0-.09,0-.18,0-.29l.3-1C4,5,4,4.86,4,4.77a1.13,1.13,0,0,0,0-.25A.38.38,0,0,0,4,4.25a.44.44,0,0,0-.32-.08l-.23,0-.21.07L3.28,4a4.74,4.74,0,0,1,.56-.2,1.51,1.51,0,0,1,.5-.09A.92.92,0,0,1,5,3.87a.66.66,0,0,1,.23.53s0,.13,0,.24A1.52,1.52,0,0,1,5.15,5l-.3,1c0,.08,0,.18-.06.28a1.52,1.52,0,0,0,0,.24.37.37,0,0,0,.09.29.52.52,0,0,0,.32.07.77.77,0,0,0,.25,0l.19-.06Zm0-4.22A.67.67,0,0,1,5,3.07a.71.71,0,0,1-.5-.19.6.6,0,0,1-.21-.46A.62.62,0,0,1,4.49,2,.76.76,0,0,1,5,1.76.71.71,0,0,1,5.48,2a.62.62,0,0,1,.21.47A.6.6,0,0,1,5.48,2.88Z"/></g></g></svg>