<svg xmlns="http://www.w3.org/2000/svg" viewBox="0 0 16.39 16.39"><defs><style>.cls-1{fill:#312c30;}.cls-2{fill:#fff;fill-rule:evenodd;}</style></defs><g id="Capa_2" data-name="Capa 2"><g id="Layer_1" data-name="Layer 1"><path class="cls-1" d="M8.19,16.39a8.2,8.2,0,1,1,8.2-8.2A8.21,8.21,0,0,1,8.19,16.39Z"/><path class="cls-2" d="M8.58,2.86a4.95,4.95,0,0,0-4.16,7.63l-.75,1.65a.43.43,0,0,0,.07.46.42.42,0,0,0,.33.16l.11,0,2.07-.57a5,5,0,0,0,2.33.59,4.95,4.95,0,0,0,0-9.9Zm0,9a4.09,4.09,0,0,1-2-.55.46.46,0,0,0-.22-.06H6.19l-1.35.37.47-1a.42.42,0,0,0,0-.43A4,4,0,0,1,4.5,7.81a4.08,4.08,0,1,1,4.08,4.08Z"/><path class="cls-2" d="M10.48,8.55a.81.81,0,0,0-.72-.16c-.18.07-.3.37-.43.52A.19.19,0,0,1,9.1,9a3.28,3.28,0,0,1-1.63-1.4.2.2,0,0,1,0-.27,1.09,1.09,0,0,0,.29-.48.94.94,0,0,0-.13-.57c-.1-.21-.21-.52-.42-.64a.57.57,0,0,0-.62.1,1.23,1.23,0,0,0-.44,1,1.12,1.12,0,0,0,0,.32,2.61,2.61,0,0,0,.3.71c.1.16.21.33.32.48A5,5,0,0,0,8.23,9.5a4.52,4.52,0,0,0,.86.41,1.94,1.94,0,0,0,1,.16A1.21,1.21,0,0,0,11,9.39a.6.6,0,0,0,0-.35C11,8.81,10.68,8.66,10.48,8.55Z"/></g></g></svg>