<svg xmlns="http://www.w3.org/2000/svg" viewBox="0 0 10 10"><defs><style>.cls-1{fill:#312c30;}.cls-2{fill:#fff;}</style></defs><g id="Capa_2" data-name="Capa 2"><g id="Layer_1" data-name="Layer 1"><path class="cls-1" d="M5,10a5,5,0,1,1,5-5A5,5,0,0,1,5,10Z"/><path class="cls-2" d="M4.89,5.73l3-2.08a.08.08,0,0,0,0-.06V3a.08.08,0,0,0-.08-.08H2.18A.08.08,0,0,0,2.1,3V3.6s0,0,0,.06L4.8,5.73A.07.07,0,0,0,4.89,5.73Z"/><path class="cls-2" d="M4.93,6.1a.16.16,0,0,1-.09,0,.18.18,0,0,1-.1,0L2.23,4.14a.08.08,0,0,0-.13.06V7a.08.08,0,0,0,.08.08H7.82A.08.08,0,0,0,7.9,7V4.17a.08.08,0,0,0-.13-.06Z"/></g></g></svg>