<svg xmlns="http://www.w3.org/2000/svg" viewBox="0 0 9.98 9.98"><defs><style>.cls-1{fill:#312c30;}.cls-2{fill:#fff;}</style></defs><g id="Capa_2" data-name="Capa 2"><g id="Layer_1" data-name="Layer 1"><path class="cls-1" d="M5,10a5,5,0,1,1,5-5A5,5,0,0,1,5,10Z"/><path class="cls-2" d="M6.68,7.75A4.64,4.64,0,0,1,2.43,4.48a8.56,8.56,0,0,1-.21-1.33.84.84,0,0,1,.16-.41,2.37,2.37,0,0,1,.27-.28.73.73,0,0,1,1.25.3c.06.19.09.38.16.56a.76.76,0,0,1-.25.89.27.27,0,0,0-.08.35,2.85,2.85,0,0,0,1.71,1.7.23.23,0,0,0,.29-.08.81.81,0,0,1,.94-.26c.17.06.34.09.51.14a.77.77,0,0,1,.56.59.7.7,0,0,1-.23.68l-.13.13A.71.71,0,0,1,6.68,7.75Z"/></g></g></svg>