<svg xmlns="http://www.w3.org/2000/svg" viewBox="0 0 16.36 16.36"><defs><style>.cls-1{fill:#312c30;}.cls-2{fill:#fff;}</style></defs><g id="Capa_2" data-name="Capa 2"><g id="Layer_1" data-name="Layer 1"><path class="cls-1" d="M8.18,16.36a8.18,8.18,0,1,1,8.18-8.18A8.19,8.19,0,0,1,8.18,16.36Z"/><path class="cls-2" d="M12.81,8.8v3.06a.14.14,0,0,1-.14.13H11.09a.13.13,0,0,1-.13-.13V9c0-.75-.27-1.26-.94-1.26a1,1,0,0,0-.95.68A1.2,1.2,0,0,0,9,8.89v3a.13.13,0,0,1-.14.13H7.29a.13.13,0,0,1-.13-.13c0-.76,0-4.43,0-5.29a.14.14,0,0,1,.14-.14H8.87A.14.14,0,0,1,9,6.57v.67H9v0a1.82,1.82,0,0,1,1.67-.92c1.21,0,2.13.79,2.13,2.5ZM4.42,12H6a.13.13,0,0,0,.13-.13V6.57A.13.13,0,0,0,6,6.43H4.42a.13.13,0,0,0-.13.14v5.29A.13.13,0,0,0,4.42,12Z"/><circle class="cls-2" cx="5.15" cy="4.73" r="0.99"/></g></g></svg>